HIERARCHY
ROOT reference
{
  OFFSET 0 0 0
  CHANNELS 6 Xposition Yposition Zposition Zrotation Xrotation Yrotation
  JOINT Hips
  {
    OFFSET 40.8535 86.6696 97.9072
    CHANNELS 6 Xposition Yposition Zposition Zrotation Xrotation Yrotation
    JOINT Spine
    {
      OFFSET 0 7.85829 0
      CHANNELS 6 Xposition Yposition Zposition Zrotation Xrotation Yrotation
      JOINT Spine1
      {
        OFFSET 0 25.1384 0
        CHANNELS 6 Xposition Yposition Zposition Zrotation Xrotation Yrotation
        JOINT Neck
        {
          OFFSET 0 25.0351 2.27592
          CHANNELS 6 Xposition Yposition Zposition Zrotation Xrotation Yrotation
          JOINT Head
          {
            OFFSET 0 13.4166 -1.91665
            CHANNELS 6 Xposition Yposition Zposition Zrotation Xrotation Yrotation
            End Site
            {
              OFFSET 0 23.9582 0
            }
          }
        }
        JOINT LeftShoulder
        {
          OFFSET 3.81534 24.0346 -0.234509
          CHANNELS 6 Xposition Yposition Zposition Zrotation Xrotation Yrotation
          JOINT LeftArm
          {
            OFFSET 8.62273 0 0
            CHANNELS 6 Xposition Yposition Zposition Zrotation Xrotation Yrotation
            JOINT LeftForeArm
            {
              OFFSET 31.7064 0 0
              CHANNELS 6 Xposition Yposition Zposition Zrotation Xrotation Yrotation
              JOINT LeftHand
              {
                OFFSET 23.7731 0 0
                CHANNELS 6 Xposition Yposition Zposition Zrotation Xrotation Yrotation
                End Site
                {
                  OFFSET 14.3749 0 0
                }
              }
            }
          }
        }
        JOINT RightShoulder
        {
          OFFSET -3.83608 24.0346 -0.234509
          CHANNELS 6 Xposition Yposition Zposition Zrotation Xrotation Yrotation
          JOINT RightArm
          {
            OFFSET -8.62273 0 0
            CHANNELS 6 Xposition Yposition Zposition Zrotation Xrotation Yrotation
            JOINT RightForeArm
            {
              OFFSET -31.7064 0 0
              CHANNELS 6 Xposition Yposition Zposition Zrotation Xrotation Yrotation
              JOINT RightHand
              {
                OFFSET -23.7731 0 0
                CHANNELS 6 Xposition Yposition Zposition Zrotation Xrotation Yrotation
                End Site
                {
                  OFFSET -14.3749 0 0
                }
              }
            }
          }
        }
      }
    }
    JOINT LeftUpLeg
    {
      OFFSET 9.58328 0 0
      CHANNELS 6 Xposition Yposition Zposition Zrotation Xrotation Yrotation
      JOINT LeftLeg
      {
        OFFSET 0 -36.4535 0
        CHANNELS 6 Xposition Yposition Zposition Zrotation Xrotation Yrotation
        JOINT LeftFoot
        {
          OFFSET 0 -41.4659 0
          CHANNELS 6 Xposition Yposition Zposition Zrotation Xrotation Yrotation
          JOINT LeftToeBase
          {
            OFFSET 0 -6.22913 14.3749
            CHANNELS 6 Xposition Yposition Zposition Zrotation Xrotation Yrotation
            End Site
            {
              OFFSET 0 0 3.83331
            }
          }
        }
      }
    }
    JOINT RightUpLeg
    {
      OFFSET -9.58328 0 0
      CHANNELS 6 Xposition Yposition Zposition Zrotation Xrotation Yrotation
      JOINT RightLeg
      {
        OFFSET 0 -36.4535 0
        CHANNELS 6 Xposition Yposition Zposition Zrotation Xrotation Yrotation
        JOINT RightFoot
        {
          OFFSET 0 -41.4659 0
          CHANNELS 6 Xposition Yposition Zposition Zrotation Xrotation Yrotation
          JOINT RightToeBase
          {
            OFFSET 0 -6.22913 14.3749
            CHANNELS 6 Xposition Yposition Zposition Zrotation Xrotation Yrotation
            End Site
            {
              OFFSET 0 0 3.83331
            }
          }
        }
      }
    }
  }
}
MOTION
Frames:	9
Frame Time:	0.004
0 0 0 0 0 -0 6.10875 77.6658 -205.282 0.924139 -1.28196 1.23672 0 7.85829 0 -0.81611 -7.82033 -0.300092 0 25.1384 0 0.773792 1.6958 -0.255563 0 25.0351 2.27592 -0.426152 34.9642 0.30271 0 13.4166 -1.91665 2.91628 -11.7238 0.941696 3.81534 24.0346 -0.234509 7.75574 5.03194 4.04548 8.62273 0 0 -9.01956 7.42344 -2.25958 31.7064 -1.42109e-014 0 4.72275 -6.6241 1.6913 23.7731 -2.84217e-014 0 12.4602 -6.47857 1.98048 -3.83608 24.0346 -0.234509 -8.10999 2.40591 3.66182 -8.62273 -2.84217e-014 0 4.10844 -3.23259 -3.08867 -31.7064 0 0 -3.94403 -1.34642 2.70263 -23.7731 0 2.84217e-014 -17.9288 -0.836768 -2.66458 9.58328 0 0 2.17317 8.07615 -0.25201 0 -36.4535 2.84217e-014 -8.97834 -4.94728 4.97321 0 -41.4659 2.84217e-014 12.2064 -8.52539 10.3217 0 -6.22913 14.3749 7.95139e-016 0 -6.36111e-015 -9.58328 0 0 -2.01789 1.54764 3.61608 -1.77636e-015 -36.4535 0 4.66722 6.85619 6.34212 7.10543e-015 -41.4659 0 -16.7358 -12.1849 -20.8472 0 -6.22913 14.3749 2.5842e-015 3.18055e-015 1.59028e-015 
0 0 0 0 0 -0 6.10875 77.6658 -205.282 0.924081 -1.2934 1.22323 0 7.85829 0 -0.81611 -7.82033 -0.300092 -1.77636e-015 25.1384 0 0.764993 1.70096 -0.255564 -1.77636e-015 25.0351 2.27592 -0.416078 34.9777 0.285035 0 13.4166 -1.91665 2.91205 -11.7092 0.921986 3.81534 24.0346 -0.234509 7.72482 5.04281 4.06192 8.62273 0 -2.84217e-014 -9.02925 7.50167 -2.26001 31.7064 -1.42109e-014 0 4.72437 -6.64671 1.69929 23.7731 0 0 12.7485 -6.47739 2.15275 -3.83608 24.0346 -0.234509 -8.10723 2.40586 3.67941 -8.62273 -2.84217e-014 0 4.12499 -3.22264 -3.11207 -31.7064 0 0 -3.92892 -1.34644 2.68514 -23.7731 -2.84217e-014 -2.84217e-014 -17.9283 -0.83679 -2.63093 9.58328 -1.42109e-014 0 2.1748 8.08694 -0.250588 0 -36.4535 0 -8.97687 -4.94323 4.97318 0 -41.4659 -2.84217e-014 12.2127 -8.53248 10.3411 0 -6.22913 14.3749 5.96354e-016 -1.59028e-015 -9.54166e-015 -9.58328 0 -2.84217e-014 -2.01524 1.55964 3.6409 0 -36.4535 0 4.67059 6.85657 6.31388 0 -41.4659 0 -16.6939 -12.2716 -20.8692 -3.55271e-015 -6.22913 14.3749 7.95139e-016 1.59028e-015 -0 
0 0 0 0 0 -0 6.10875 77.6658 -205.282 0.924024 -1.29397 1.22016 0 7.85829 2.84217e-014 -0.815981 -7.82033 -0.299144 0 25.1384 -2.84217e-014 0.760578 1.70977 -0.255099 0 25.0351 2.27592 -0.41493 34.9794 0.28302 0 13.4166 -1.91665 2.91146 -11.689 0.920666 3.81534 24.0346 -0.234509 7.71677 5.05533 4.0633 8.62273 -2.84217e-014 0 -9.05776 7.49328 -2.24196 31.7064 -2.84217e-014 2.84217e-014 4.66068 -6.50088 1.72517 23.7731 0 -2.84217e-014 12.7413 -6.33816 2.09507 -3.83608 24.0346 -0.234509 -8.09271 2.41404 3.67539 -8.62273 0 2.84217e-014 4.12926 -3.21558 -3.1122 -31.7064 -2.84217e-014 0 -3.92132 -1.34644 2.67944 -23.7731 -2.84217e-014 0 -17.9258 -0.836774 -2.65429 9.58328 0 0 2.19009 8.08786 -0.262298 7.10543e-015 -36.4535 0 -8.99158 -4.93355 4.9731 0 -41.4659 0 12.2441 -8.54935 10.3708 0 -6.22913 14.3749 3.97569e-016 7.95139e-016 -3.18055e-015 -9.58328 -1.42109e-014 0 -2.00557 1.5607 3.63375 0 -36.4535 -2.84217e-014 4.6685 6.85881 6.32911 -7.10543e-015 -41.4659 -2.84217e-014 -16.6121 -12.2916 -20.8509 0 -6.22913 14.3749 -1.98785e-015 0 -0 
0 0 0 0 0 -0 6.10864 77.6658 -205.277 0.923627 -1.29513 1.20154 0 7.85829 -2.84217e-014 -0.814386 -7.82034 -0.287423 0 25.1384 -2.84217e-014 0.751772 1.72165 -0.243188 0 25.0351 2.27592 -0.402694 34.9712 0.274581 0 13.4166 -1.91665 2.895 -11.6587 0.909068 3.81534 24.0346 -0.234509 7.70503 5.06994 4.08202 8.62273 0 -2.84217e-014 -9.07674 7.50895 -2.2506 31.7064 -1.42109e-014 0 4.69082 -6.58249 1.7531 23.7731 0 0 12.3578 -6.4433 1.95709 -3.83608 24.0346 -0.234509 -8.09543 2.41894 3.66209 -8.62273 0 2.84217e-014 4.14228 -3.21491 -3.11159 -31.7064 -2.84217e-014 -2.84217e-014 -3.88886 -1.34646 2.66924 -23.7731 0 -2.84217e-014 -17.969 -0.836777 -2.65058 9.58328 0 0 2.1766 8.08799 -0.238881 3.55271e-015 -36.4535 0 -8.97927 -4.92071 4.97914 0 -41.4659 0 12.5191 -8.56158 10.3588 -1.42109e-014 -6.22913 14.3749 9.93923e-016 -7.95139e-016 -6.36111e-015 -9.58328 1.42109e-014 -2.84217e-014 -2.01324 1.55386 3.63913 3.55271e-015 -36.4535 2.84217e-014 4.67273 6.86847 6.2854 -7.10543e-015 -41.4659 0 -16.792 -12.1802 -20.7987 3.55271e-015 -6.22913 14.3749 5.96354e-016 -1.59028e-015 -1.59028e-015 
0 0 0 0 0 -0 6.10703 77.6658 -205.27 0.923793 -1.31114 1.19413 0 7.85829 0 -0.817697 -7.80909 -0.288201 1.77636e-015 25.1384 2.84217e-014 0.756264 1.72759 -0.243883 0 25.0351 2.27592 -0.430297 34.9798 0.27544 1.77636e-015 13.4166 -1.91665 2.91834 -11.6505 0.910606 3.81534 24.0346 -0.234509 7.68342 5.07566 4.09903 8.62273 -2.84217e-014 -2.84217e-014 -9.09484 7.51952 -2.23242 31.7064 0 -2.84217e-014 4.68638 -6.61102 1.74834 23.7731 2.84217e-014 0 12.3488 -6.47003 1.97302 -3.83608 24.0346 -0.234509 -8.09539 2.42947 3.66941 -8.62273 2.84217e-014 2.84217e-014 4.15625 -3.19738 -3.1108 -31.7064 0 0 -3.87841 -1.3415 2.65659 -23.7731 2.84217e-014 -2.84217e-014 -17.9554 -0.832135 -2.65501 9.58328 0 2.84217e-014 2.18164 8.10744 -0.257195 0 -36.4535 0 -8.98307 -4.92123 4.99392 0 -41.4659 0 12.5396 -8.57865 10.3701 0 -6.22913 14.3749 5.96354e-016 7.95139e-016 3.18055e-015 -9.58328 -1.42109e-014 0 -2.0039 1.5714 3.62638 3.55271e-015 -36.4535 0 4.66735 6.8766 6.32242 0 -41.4659 2.84217e-014 -16.823 -12.1673 -20.8253 0 -6.22913 14.3749 -3.97569e-016 0 1.59028e-015 
0 0 0 0 0 -0 6.10526 77.6658 -205.267 0.923354 -1.30381 1.18151 1.77636e-015 7.85829 0 -0.817204 -7.82394 -0.276442 0 25.1384 0 0.746489 1.73473 -0.232309 0 25.0351 2.27592 -0.386628 34.9982 0.256966 0 13.4166 -1.91665 2.8691 -11.6566 0.887382 3.81534 24.0346 -0.234509 7.67363 5.10778 4.10287 8.62273 0 0 -9.12186 7.53787 -2.23552 31.7064 2.84217e-014 2.84217e-014 4.70161 -6.66131 1.7628 23.7731 0 0 12.4008 -6.51378 2.03302 -3.83608 24.0346 -0.234509 -8.09276 2.42526 3.66813 -8.62273 0 2.84217e-014 4.17028 -3.19001 -3.11008 -31.7064 -2.84217e-014 0 -3.86968 -1.32416 2.63993 -23.7731 0 -2.84217e-014 -17.8908 -0.819954 -2.637 9.58328 -1.42109e-014 0 2.17402 8.08939 -0.235487 3.55271e-015 -36.4535 0 -8.96996 -4.89161 4.96284 0 -41.4659 0 12.2878 -8.57743 10.4019 0 -6.22913 14.3749 1.98785e-016 -7.95139e-016 3.18055e-015 -9.58328 0 0 -2.00217 1.56057 3.65222 1.77636e-015 -36.4535 -2.84217e-014 4.66626 6.8835 6.32512 0 -41.4659 0 -16.8141 -12.1717 -20.8353 0 -6.22913 14.3749 3.97569e-016 -1.59028e-015 1.59028e-015 
0 0 0 0 0 -0 6.10342 77.6658 -205.256 0.923726 -1.33366 1.17107 1.77636e-015 7.85829 0 -0.817619 -7.81109 -0.27359 1.77636e-015 25.1384 0 0.736998 1.76273 -0.229381 1.77636e-015 25.0351 2.27592 -0.387973 34.9954 0.250543 0 13.4166 -1.91665 2.86621 -11.6521 0.879737 3.81534 24.0346 -0.234509 7.66429 5.08875 4.12629 8.62273 -2.84217e-014 0 -9.14823 7.57813 -2.22794 31.7064 -1.42109e-014 -2.84217e-014 4.77737 -6.62266 1.77904 23.7731 2.84217e-014 0 12.2197 -6.47344 2.09629 -3.83608 24.0346 -0.234509 -8.08143 2.44265 3.66602 -8.62273 0 -2.84217e-014 4.17459 -3.18163 -3.10956 -31.7064 0 -2.84217e-014 -3.86715 -1.33412 2.6352 -23.7731 0 0 -17.7983 -0.832859 -2.63333 9.58328 0 0 2.17352 8.13184 -0.282129 -3.55271e-015 -36.4535 0 -8.97083 -4.90802 5.01155 -7.10543e-015 -41.4659 0 12.2366 -8.56234 10.4123 0 -6.22913 14.3749 5.96354e-016 7.95139e-016 -0 -9.58328 -1.42109e-014 2.84217e-014 -2.00914 1.59663 3.64578 1.77636e-015 -36.4535 -2.84217e-014 4.67047 6.87918 6.29436 0 -41.4659 0 -16.7982 -12.1851 -20.7854 0 -6.22913 14.3749 2.5842e-015 0 1.59028e-015 
0 0 0 0 0 -0 6.10157 77.6658 -205.251 0.923279 -1.32991 1.15511 0 7.85829 0 -0.817228 -7.82078 -0.264831 0 25.1384 0 0.732105 1.76249 -0.220498 0 25.0351 2.27592 -0.400169 35.01 0.252537 1.77636e-015 13.4166 -1.91665 2.88435 -11.6446 0.883888 3.81534 24.0346 -0.234509 7.65466 5.10255 4.12674 8.62273 -2.84217e-014 -2.84217e-014 -9.16921 7.48187 -2.20727 31.7064 -1.42109e-014 0 4.77047 -6.5883 1.78034 23.7731 -2.84217e-014 2.84217e-014 12.1507 -6.44217 2.07864 -3.83608 24.0346 -0.234509 -8.08012 2.4412 3.66335 -8.62273 2.84217e-014 0 4.18765 -3.1587 -3.11037 -31.7064 -2.84217e-014 0 -3.86311 -1.33575 2.62721 -23.7731 0 0 -17.7777 -0.823158 -2.65837 9.58328 -1.42109e-014 0 2.16337 8.12844 -0.282166 0 -36.4535 0 -8.96663 -4.89719 5.00913 0 -41.4659 -2.84217e-014 12.2066 -8.56882 10.43 0 -6.22913 14.3749 -9.93923e-016 7.95139e-016 6.36111e-015 -9.58328 -1.42109e-014 0 -2.01329 1.59004 3.65897 0 -36.4535 0 4.68377 6.89074 6.27422 0 -41.4659 2.84217e-014 -16.8071 -12.1899 -20.7771 -3.55271e-015 -6.22913 14.3749 9.93923e-016 0 -0 
0 0 0 0 0 -0 6.09978 77.6658 -205.243 0.923609 -1.34779 1.15385 0 7.85829 0 -0.817962 -7.81521 -0.265181 -1.77636e-015 25.1384 0 0.733145 1.77791 -0.220847 0 25.0351 2.27592 -0.412934 35.0101 0.256463 0 13.4166 -1.91665 2.88071 -11.6372 0.884388 3.81534 24.0346 -0.234509 7.62537 5.11004 4.15142 8.62273 0 0 -9.18313 7.49506 -2.21001 31.7064 0 0 4.78506 -6.60377 1.80593 23.7731 0 0 12.1716 -6.462 2.04609 -3.83608 24.0346 -0.234509 -8.08318 2.44027 3.66054 -8.62273 0 0 4.20078 -3.12421 -3.12206 -31.7064 0 2.84217e-014 -3.85883 -1.33428 2.62465 -23.7731 -2.84217e-014 -2.84217e-014 -17.6773 -0.832721 -2.65628 9.58328 1.42109e-014 0 2.16558 8.14982 -0.312838 -3.55271e-015 -36.4535 2.84217e-014 -8.95814 -4.89613 5.03322 0 -41.4659 0 12.2328 -8.57855 10.4154 0 -6.22913 14.3749 5.96354e-016 0 -0 -9.58328 0 0 -2.00879 1.60902 3.65873 3.55271e-015 -36.4535 0 4.6732 6.90153 6.34716 0 -41.4659 0 -16.7846 -12.1911 -20.8286 0 -6.22913 14.3749 -1.39149e-015 1.59028e-015 -0 
